<svg width="512" height="512" viewBox="0 0 512 512" fill="none" xmlns="http://www.w3.org/2000/svg">
<g clip-path="url(#clip0)">
<path d="M256 512C397.385 512 512 397.385 512 256C512 114.615 397.385 0 256 0C114.615 0 0 114.615 0 256C0 397.385 114.615 512 256 512Z" fill="#4CAF50"/>
<path d="M359.936 376.661V376.683C355.605 376.683 352.917 375.339 348.885 372.971C284.48 334.144 209.536 332.523 135.509 347.691C131.477 348.736 126.208 350.379 123.221 350.379C113.195 350.379 106.901 342.421 106.901 334.059C106.901 323.413 113.195 318.357 120.96 316.715C205.504 298.048 291.904 299.691 365.589 343.765C371.883 347.797 375.616 351.403 375.616 360.789C375.616 370.133 368.277 376.661 359.936 376.661Z" fill="white"/>
<path d="M387.733 308.971H387.712C382.336 308.971 378.731 306.603 374.997 304.64C310.464 266.453 214.293 251.051 128.704 274.283C123.755 275.627 121.067 276.971 116.416 276.971C105.365 276.971 96.4053 267.989 96.4053 256.96C96.4053 245.931 101.781 238.592 112.405 235.605C141.099 227.541 170.411 221.547 213.355 221.547C280.341 221.547 345.067 238.165 396.075 268.523C404.437 273.472 407.744 279.893 407.744 288.853C407.637 299.968 398.976 308.971 387.733 308.971Z" fill="white"/>
<path d="M97.0239 149.291C133.355 138.645 174.037 133.611 218.325 133.611C293.675 133.611 372.651 149.291 430.357 182.955C438.421 187.605 443.669 194.005 443.669 206.272C443.669 220.309 432.299 230.315 419.733 230.315L419.712 230.293C414.336 230.293 411.029 228.949 406.379 226.261C332.907 182.4 201.472 171.883 116.437 195.627C112.704 196.651 108.053 198.293 103.104 198.293C89.4719 198.293 79.0613 187.648 79.0613 173.931C79.0613 159.915 87.7439 151.979 97.0239 149.291Z" fill="white"/>
</g>
<defs>
<clipPath id="clip0">
<rect width="512" height="512" fill="white"/>
</clipPath>
</defs>
</svg>
